<svg xmlns="http://www.w3.org/2000/svg" version="1.1" xmlns:xlink="http://www.w3.org/1999/xlink" xmlns:svgjs="http://svgjs.dev/svgjs" width="1440" height="560" preserveAspectRatio="none" viewBox="0 0 1440 560"><g mask="url(&quot;#SvgjsMask1000&quot;)" fill="none"><rect width="1440" height="560" x="0" y="0" fill="#0e2a47"></rect><circle r="8.14" cx="415.49" cy="455.2" filter="url(#SvgjsFilter1001)" fill="rgba(51, 121, 194, 0.58)"></circle><circle r="5.595" cx="839.075" cy="560.255" filter="url(#SvgjsFilter1001)" fill="rgba(51, 121, 194, 0.58)"></circle><circle r="6.27" cx="473.66999999999996" cy="114.83999999999999" filter="url(#SvgjsFilter1001)" fill="rgba(51, 121, 194, 0.58)"></circle><circle r="6.985" cx="1406.895" cy="122.315" filter="url(#SvgjsFilter1001)" fill="rgba(51, 121, 194, 0.58)"></circle><circle r="4.96" cx="688.7900000000001" cy="21.380000000000003" filter="url(#SvgjsFilter1001)" fill="rgba(51, 121, 194, 0.58)"></circle><circle r="6.69" cx="866.3800000000001" cy="388.39" filter="url(#SvgjsFilter1001)" fill="rgba(51, 121, 194, 0.58)"></circle><circle r="5.465" cx="608.485" cy="29.355" filter="url(#SvgjsFilter1001)" fill="rgba(51, 121, 194, 0.58)"></circle><circle r="7.32" cx="1285.46" cy="347.03" filter="url(#SvgjsFilter1001)" fill="rgba(51, 121, 194, 0.58)"></circle><circle r="9.17" cx="547.68" cy="109.45" filter="url(#SvgjsFilter1001)" fill="rgba(51, 121, 194, 0.58)"></circle><circle r="6.485" cx="960.825" cy="13.795" filter="url(#SvgjsFilter1001)" fill="rgba(51, 121, 194, 0.58)"></circle><circle r="8.865" cx="315.665" cy="213.535" filter="url(#SvgjsFilter1001)" fill="rgba(51, 121, 194, 0.58)"></circle><circle r="6.455" cx="1256.5349999999999" cy="551.005" filter="url(#SvgjsFilter1001)" fill="rgba(51, 121, 194, 0.58)"></circle><circle r="7.775" cx="1052.325" cy="127.105" filter="url(#SvgjsFilter1001)" fill="rgba(51, 121, 194, 0.58)"></circle><circle r="8.225" cx="979.275" cy="52.485" filter="url(#SvgjsFilter1001)" fill="rgba(51, 121, 194, 0.58)"></circle><circle r="9.115" cx="730.345" cy="538.885" filter="url(#SvgjsFilter1001)" fill="rgba(51, 121, 194, 0.58)"></circle><circle r="5.35" cx="1283.6699999999998" cy="345.81" filter="url(#SvgjsFilter1001)" fill="rgba(51, 121, 194, 0.58)"></circle><circle r="7.085" cx="42.695" cy="213.185" filter="url(#SvgjsFilter1001)" fill="rgba(51, 121, 194, 0.58)"></circle><circle r="4.81" cx="657.1199999999999" cy="248.68" filter="url(#SvgjsFilter1001)" fill="rgba(51, 121, 194, 0.58)"></circle><circle r="9.265" cx="149.945" cy="247.695" filter="url(#SvgjsFilter1001)" fill="rgba(51, 121, 194, 0.58)"></circle><circle r="7.095" cx="777.495" cy="409.63500000000005" filter="url(#SvgjsFilter1001)" fill="rgba(51, 121, 194, 0.58)"></circle><path d="M581.2 442.5L596.1 429 599.4 442.1C599.6 443.5 601.3 444.7 603.3 444.7 604.9 443.8 606.1 442.2 605.8 440.8L601.9 423.4 615.8 411 623.6 446.3C624.2 448.5 625.8 449.7 627.5 448.8 629.5 448.8 630.7 447.2 630 445L621.4 406.1 633.7 394.5 671 406.1 674.5 420.6 642.8 449C642.6 449.6 642.5 450.2 642.3 450.8 642.1 451.4 642.3 452.8 642.7 453.6 644.2 455.4 646.2 455.4 647.4 453.7L676.2 427.9 680 445.8 665.7 459.4C665.1 459.3 664.9 459.9 664.7 460.5 664.3 461.7 664.6 463.1 665.6 464.1 666.6 465.1 668.7 465.1 670.3 464.2L681.8 453.1 686.9 475.4C687.1 476.8 688.7 478 690.8 478 692.4 477.2 693.6 475.5 693.3 474.1L688.5 453.1 701.3 457.1C703.1 457.7 704.9 456.3 705.3 455 705.9 453.2 705.2 451 703.4 450.4L686.9 445.3 683.1 427.3 717.3 438C719.2 438.6 720.8 437.7 721.3 435.9 721.9 434.1 721.1 432.5 719.2 431.9L681.3 420.1 677.4 404.8 706.5 378.3 720.5 382.7 729.6 422.4C729.6 424.4 731.9 425.8 733.5 424.9 735.5 424.9 736.1 423.1 736 421L727.8 385 745.6 390.5 749.3 408.4C749.6 409.9 751.8 411.2 753.2 411S756 408.5 756 406.5L752.9 392.8 774.3 399.5C776.1 400 777.9 398.6 778.5 396.7 778.8 395.5 778.2 393.3 776.4 392.7L755 386.1 765.5 375.9C766.5 374.9 767.1 373.1 765.6 371.3 764.6 370.3 762 370.1 761 371.2L747.7 383.8 729.9 378.3 757.2 353.2C758.4 351.6 758.9 349.8 757.5 348 756.5 347 753.8 346.8 752.8 347.9L722.6 376 708.6 371.6 699.7 333.3 711.7 322.9 749.5 334.8C751.4 335.3 753 334.5 753.5 332.7 754.1 330.8 753.5 328.6 751.6 328L717.4 317.4 730.7 304.8 747.2 309.9C749.1 310.5 750.7 309.6 751.2 307.8 751.8 306 751 304.4 749.1 303.8L736.3 299.8 752.2 285.3C753.2 284.3 753.4 281.6 752.3 280.7 750.7 279.5 748.9 278.9 747.7 280.5L731 295.4 727.6 280.3C726.8 278.7 725.2 277.5 723.7 277.8 722.3 278 721.3 279 721 280.2 721 280.2 720.8 280.9 721.2 281.7L725.2 301 711.9 313.6 702.9 275.9C702.8 273.9 701.2 272.7 699 273.4 698.2 273.8 697.4 274.2 697 275.4 696.8 276.1 696.6 276.7 696.4 277.3L706.3 318.6 695.2 328.5 657.9 316.9 654.3 300.4 683.6 273.3C685.4 271.8 685.3 269.8 683.7 268.6 682.9 267 680.8 267.1 679 268.5L652.6 293.1 648.2 275 661.3 263C662.3 261.9 662.3 259.9 661.4 258.3 659.8 257.1 658 256.6 656.8 258.2L646.6 267.1 642 247.6C642 245.5 640.1 245 638.1 245 637.3 245.4 636.3 246.5 635.9 247.7 635.9 247.7 635.7 248.3 635.5 248.9L640.4 269.9 625.1 265.1C623.9 264.7 621.7 265.4 621.1 267.2 620.5 269 622 270.8 623.2 271.2L642.2 277.1 646.6 295.2 609.3 283.6C607.5 283 605.7 284.5 605.1 286.3S605.4 289.8 607.2 290.3L648.1 303.1 651.5 318.2 622.4 344.7 606.5 339.7 597.6 299.4C596.8 297.8 595.2 296.6 593.1 296.7 592.3 297.1 591.3 298.1 591 299.4 590.8 300 590.6 300.6 591 301.4L599.2 337.5 581.5 331.9 577.1 313.8C576.8 312.4 575.2 311.2 573.2 311.2 571.6 312.1 570.4 313.7 570.6 315.1L574.1 329.6 554.6 323.5C553.4 323.2 551 324.4 550.6 325.6 550 327.5 551.3 329.9 552.5 330.3L572 336.4 561.1 345.7C560.9 346.3 560.7 346.9 560.5 347.5 560.1 348.7 560.4 350.1 560.8 350.9 562.4 352.1 564.5 352.1 566.1 351.3L579.4 338.6 597.1 344.2 569.8 369.2C568.1 370.6 568.1 372.7 569.1 373.7 570.6 375.5 572.6 375.4 574.2 374.6L604.4 346.5 620.3 351.4 629.1 389.7 617.8 400.3 576.9 387.5C575 386.9 573.4 387.7 572.9 389.6 572.3 391.4 573.1 393 575 393.6L612.2 405.2 598.3 417.6 579.4 411.7C578.1 411.3 575.7 412.6 575.2 414.4 574.6 416.3 576 418.1 577.3 418.4L592.5 423.2 576.6 437.7C576.4 438.3 576.4 438.3 576.2 438.9 575.9 440.1 576.1 441.5 576.5 442.3 578.2 443.5 580.2 443.5 581.2 442.5ZM627.6 353.7L627 349.5 629.7 347 653.2 325.5 656 323 659.7 324.1 689.6 333.5 693.3 334.6 694.1 338.3 701.2 369.3 702.1 372.9 699.1 376 675.8 396.9 672.9 400 669.2 398.9 639.3 389.5 635.6 388.4 634.9 384.1 627.6 353.7Z" fill="rgba(51, 121, 194, 0.58)"></path><path d="M264.2 140.7L244 189.6 230.6 195.5 204.6 175.8 206.3 160.9 248.4 128.7C248.8 128.2 248.8 128.2 249.2 127.7 250 126.7 250.3 125.3 249.1 123.6 247.6 122.4 246.2 122.2 244.5 123.3L207.7 151.6 210.6 128.8 226.6 116.1C226.6 116.1 227 115.6 227 115.6 227.8 114.6 228.1 113.2 226.9 111.5 226.3 110.3 224 110.1 222.3 111.3L211.5 119.1 213.8 102.4C214.1 101 212.9 99.3 211 98.6S207.5 100 206.9 101.9L205 118.2 196.7 107.9C195.6 106.2 193.3 106.1 191.6 107.2 190.8 108.2 190.2 110.2 191.3 111.8L204 127.9 200.8 151.2 172.5 114.4C171.4 112.7 169.1 112.6 167.8 113.2 166.6 114.7 166 116.7 167.1 118.3L199.7 160 197.7 175.4 168.3 187.6 156.1 178.3 148.5 125.9C148.2 124.1 146.7 122.9 144.9 123.2S142 125 142.2 126.8L149 172.9 130.1 158.6 127.4 138.8C127.2 137 125.6 135.9 123.3 135.7S120.4 137.5 120.6 139.3L123 153.1 109.2 142.7C107.7 141.5 105.5 142.3 104.3 143.8 103.2 145.3 103.4 147.1 105 148.3L118.7 158.7 105.3 160.6C103 160.4 101.8 162 102.6 164.1 102.8 165.9 104.3 167.1 106.1 166.8L125.9 164.2 144.7 178.5 98.5 184.3C96.7 184.6 95.1 186.6 95.4 188.4S97.1 191.4 98.9 191.1L151.8 183.9 164.1 193.2 159.8 225.3 145.9 230.8 97 210.6C95.1 209.9 93.4 211.1 92.3 212.6 91.6 214.5 92.8 216.2 94.3 217.3L137.3 234.8 116.1 243.6 97.2 235.7C95.3 235 93.7 236.1 92.5 237.7 92.2 239.1 93 241.3 94.9 241.9L107 247.1 91.5 253.8C90.2 254.4 89.6 256.3 89.8 258.1 90.9 259.8 92.9 260.5 94.1 259.8L109.7 253.1 104.6 266.2C104.3 267.6 105.1 269.8 106.5 270 108 271.2 109.3 270.6 110.5 269 110.5 269 110.9 268.5 110.9 268.5L118.8 249.6 140 240.8 122.5 283.8C121.9 285.7 122.1 287.5 124 288.2 126 288.8 127.2 288.2 128 287.2 128.4 286.7 128.4 286.7 128.4 286.7L148.6 236.9 162.4 231.3 188.4 251.1 186.3 265.5 144.2 298.7C142.9 299.3 142.8 301.6 143.4 302.9 144.6 304.6 146.9 304.7 148.5 303.6L185.3 275.3 182.5 298 166.4 310.7C164.7 311.9 164.1 313.8 165.6 314.9 166.7 316.6 169.1 316.8 170.3 316.1L181 307.4 178.7 324.1C179 325.9 180.1 327.6 182 328.2 182.9 328.1 184.2 327.5 185 326.5 185.4 325.9 185.4 325.9 185.3 325L187.5 308.3 196.3 319C197.4 320.6 199.2 320.4 200.5 319.8 200.9 319.3 200.9 319.3 201.3 318.7 202.1 317.7 202.3 316.3 201.7 315L189 299 191.8 276.2 220.1 313C221.7 314.1 223.6 314.8 224.8 313.3 225.7 313.1 225.7 313.1 226 312.6 226.8 311.6 226.6 309.8 225.9 308.5L192.8 266.5 194.9 252 224.7 239.3 236.4 248.2 243.6 301.1C243.9 302.9 245.9 304.4 247.7 304.2S251.1 301.9 250.8 300.1L244.1 254 262.4 267.9 265.6 288C265.9 289.8 267.4 291 269.2 290.8 271 290.5 272.1 289 271.9 287.2L270.1 273.7 283.8 284.2C284.8 285 287.1 285.1 288.3 283.6 289.5 282.1 289.1 279.4 288.1 278.6L274.3 268.1 287.8 266.3C288.7 266.2 289.6 266.1 290 265.5 290.7 264.5 290.6 263.6 290.5 262.7 290.2 260.9 288.7 259.8 286.9 260L266.7 262.3 248.3 248.4 294.6 242.5C295.5 242.4 295.9 241.9 296.6 240.9 297 240.4 297.4 239.9 297.3 239 297 237.2 295 235.6 293.2 235.9L240.7 242.6 229 233.7 232.9 202.1 246.6 195.6 296 216.3C297.4 216.6 299.2 216.3 300 215.3 300.4 214.8 300.4 214.8 299.9 214.4 301 212.9 300.3 210.7 298.4 210L255.3 192.6 276.9 183.3 295.8 191.2C297.2 191.5 298.5 190.8 299.3 189.8 299.3 189.8 299.6 189.3 299.6 189.3 300.8 187.8 300.1 185.6 298.1 185L285.1 179.9 300.6 173.2C301.5 173.1 301.9 172.6 302.3 172 303.1 171 303.4 169.6 302.8 169.2 302.1 167.1 300.2 166.4 298.4 166.6L282.9 173.3 288 161.2C288.7 159.3 287.9 157.1 286 156.5 284.6 156.2 282.4 156.9 282.2 158.4L274.3 177.2 253.1 186.1 270.5 143C271.2 141.1 270 139.5 268.5 138.3 267.1 138 264.9 138.8 264.2 140.7ZM203.4 183.7L223.3 198.8 226.4 201.1 225.9 204.9 222.9 229 222.1 233.2 218.6 234.6 196.1 244.1 192.7 245.5 189.6 243.2 169.7 228 166.7 225.7 167.1 222 170.2 197.8 170.6 194.1 174.4 192.2 196.9 182.8 200.4 181.4 203.4 183.7Z" fill="rgba(51, 121, 194, 0.58)"></path><path d="M1240.5 405L1250.3 384.8 1258.3 395.7C1259.1 396.9 1261.1 397.4 1262.9 396.6 1264.1 395.2 1264.5 393.2 1263.2 392L1253.6 378.1 1260.5 362.1 1280.4 391.1C1281.8 392.3 1283.8 392.8 1285 392 1286.8 390.6 1287.3 388.6 1285.9 387.4L1263.8 355.4 1275.1 331.2 1289.7 358.2 1299.3 329.1 1314.8 350.8 1298.6 386.3C1298 386.4 1298.1 387 1298.1 387.6 1298.2 388.9 1299 390.1 1300.3 390.7 1301.6 391.2 1303.5 390.4 1304.7 389L1319.1 356.9 1328.8 371.4 1321.8 386.8C1321.2 387.5 1321.3 388.2 1321.3 388.8 1321.4 389.4 1322.2 390.6 1323.5 391.2 1324.8 391.7 1326.7 390.9 1327.2 389.6L1333.2 377.5 1346.4 395.6C1347.2 397.4 1349.1 397.2 1350.9 396.4 1352.2 395.7 1352.6 393.7 1351.2 391.9L1338.6 373.8 1352 372.6C1353.9 372.4 1355 370.4 1354.9 369.1 1354.8 367.2 1353.4 366 1351.5 366.2L1334.2 367.7 1324.6 353.2 1359 350.1C1360.9 349.9 1362.1 348.5 1361.9 346.6 1361.8 345.4 1360.4 343.6 1358.5 343.7L1320.2 347.1 1304.8 325.4 1335 325.9 1315 303.3 1341.8 300.9 1363.9 332.3C1365.3 334.1 1367.2 334 1368.4 333.2 1369.7 332.4 1370.1 330.5 1369.3 328.6L1348.8 300.2 1366 298.7 1376.3 312.6C1377.1 314.4 1379 314.9 1380.8 313.5 1382 312.7 1382.5 310.7 1381.1 308.9L1373.7 298 1396 296.1C1397.9 295.9 1399.1 294.5 1398.9 292.6S1397.3 289.5 1395.4 289.7L1373.1 291.7 1378.5 279.6C1379.6 277.6 1378.8 275.7 1377.4 275.2 1375.4 274.1 1373.5 274.9 1373.1 276.9L1365.5 292.3 1348.2 293.9 1363.4 262.3C1363.9 260.4 1363.1 258.5 1361.8 258 1359.7 256.9 1357.9 257.7 1357.4 259.6L1341.2 294.5 1314.5 296.9 1330.2 271.1 1300.5 276.9 1311.8 252.8 1350.1 249.4C1352 249.2 1353.1 247.2 1353 245.9 1352.8 244 1351.4 242.8 1349.5 243L1314.4 246.1 1322 230 1339.2 228.5C1341.1 228.3 1342.3 226.9 1342.1 225 1342 223.8 1340.6 222 1338.7 222.1L1325.3 223.3 1334.4 203.2C1335.5 201.2 1334.7 199.3 1332.7 198.9 1331.4 198.4 1329.5 198.5 1329 200.5L1319.2 220.6 1311.2 209.8C1310.5 208.6 1308.5 208.1 1307.3 208.8 1306.1 209.6 1305.5 210.9 1305.6 211.6 1305.6 212.2 1305.7 212.8 1306.4 213.4L1316 227.3 1309.1 243.4 1289.1 214.3C1287.7 213.2 1285.8 212.7 1284.6 213.4 1283.3 214.2 1282.8 215.5 1282.9 216.8 1283 217.4 1283 217.4 1283.7 218L1305.8 250.1 1294.5 274.2 1279.8 247.3 1270.2 276.4 1254.8 254.6 1270.9 219.1C1271.4 217.8 1271.3 215.9 1269.3 214.8 1267.9 214.3 1266.1 215.1 1264.9 216.5L1250.4 248.6 1240.8 234 1247.7 218.6C1248.9 217.2 1248.1 215.4 1246.1 214.3 1244.7 213.8 1242.9 214.6 1241.7 216L1236.4 228 1223.2 209.9C1222.4 208 1220.5 208.2 1218.6 209 1218 209.7 1217.5 211 1217.6 211.7 1217.6 212.3 1217.7 213 1218.4 213.5L1230.9 231.7 1217.5 232.9C1215.6 233.1 1214.5 235.1 1214.6 236.4L1214.6 236.4C1214.8 238.3 1216.2 239.4 1218.1 239.3L1235.3 237.7 1245 252.3 1210.5 255.4C1208.6 255.5 1207.5 256.9 1207.6 258.8S1209.2 261.9 1211.1 261.7L1249.3 258.3 1264.8 280.1 1234.5 279.6 1254.5 302.2 1227.8 304.6 1205.7 273.1C1204.2 271.3 1202.3 271.5 1201.1 272.3 1199.9 273 1199.4 275 1200.2 276.8L1220.1 305.3 1203.5 306.7 1193.3 292.9C1192.5 291 1190.5 290.5 1188.7 292 1187.5 292.7 1187 294.7 1187.9 296.6L1195.9 307.4 1173.6 309.4C1171.7 309.6 1170.5 311 1170.7 312.9S1172.2 315.9 1174.1 315.8L1196.5 313.8 1191.1 325.8C1190.5 326.5 1190.6 327.2 1190.6 327.8 1190.7 329.1 1191.4 329.7 1192.1 330.2 1194.2 331.3 1196 330.5 1196.5 328.6L1204.1 313.1 1221.3 311.6 1206.1 343.1C1206.2 343.8 1206.2 344.4 1206.3 345 1206.4 346.3 1207.1 346.9 1207.8 347.5 1209.8 348.6 1211.7 347.8 1212.1 345.8L1228.3 311 1255.1 308.6 1239.4 334.4 1269.1 328.5 1257.7 352.7 1219.5 356.1C1217.6 356.2 1216.5 358.3 1216.6 359.6 1216.8 361.5 1218.1 362.6 1220.1 362.5L1254.5 359.4 1247.6 375.4 1230.3 377C1228.4 377.1 1227.3 378.5 1227.4 380.4S1229 383.5 1230.9 383.3L1244.3 382.1 1235.2 402.2C1234.6 402.9 1234.6 403.6 1234.7 404.2 1234.7 404.8 1235.5 406.1 1236.8 406.6 1238.2 407.1 1240.1 406.9 1240.5 405ZM1252.1 325.6L1265 304.5 1248.6 286 1273.7 286.4 1281.3 263.2 1293.4 284.6 1317.4 279.9 1304.5 301 1321 319.4 1296.5 319 1288.3 342.3 1276.7 320.8 1252.1 325.6Z" fill="rgba(51, 121, 194, 0.58)"></path><path d="M847.8 86.1L872.9 77.6 879.5 80.7 880.7 97 874.5 101.3 848.5 96C848.2 96 848.2 96 847.9 96 847.2 96.1 846.6 96.4 846.4 97.4 846.4 98.4 846.8 99 847.8 99.2L870.5 103.8 861 110.2 851 108.3C851 108.3 850.7 108.4 850.7 108.4 850 108.4 849.4 108.8 849.1 109.7 848.9 110.4 849.6 111.3 850.6 111.6L857.1 113 850 117.7C849.4 118.1 849.1 119 849.5 120S851.2 120.8 852.1 120.4L858.9 115.8 857.7 122.3C857.5 123.3 858.2 124.2 859.1 124.5 859.8 124.4 860.7 124 861 123L862.8 113 872.7 106.5 868.1 129.3C867.9 130.3 868.6 131.2 869.2 131.5 870.2 131.4 871.1 131 871.4 130L876.3 104 882.8 99.7 897.1 106.8 897.6 114.4 880.4 134.5C879.8 135.2 879.8 136.2 880.5 136.8S882.2 137.3 882.7 136.6L897.9 118.9 898.7 130.7 892.2 138.2C891.6 138.9 891.6 139.9 892.3 140.8S894 141.3 894.6 140.6L899 135.2 899.6 143.8C899.7 144.8 900.7 145.3 901.6 145.3 902.6 145.2 903.2 144.5 903.1 143.6L902.5 134.9 907.6 139.4C908.3 140.3 909.3 140.2 909.9 139.2 910.5 138.6 910.4 137.6 909.7 137L902.2 130.5 901.4 118.7 918.8 134.1C919.5 134.7 920.8 134.6 921.4 134S921.9 132.3 921.2 131.7L901.1 114.2 900.6 106.5 914.1 97.6 920.7 101 929.2 126.1C929.6 127 930.5 127.2 931.5 127.2 932.4 126.8 932.7 125.8 932.6 124.9L925 102.9 935.3 108 938.5 117.7C938.9 118.6 939.9 118.9 940.9 118.8 941.5 118.5 942.1 117.5 941.7 116.5L939.6 110.3 947.3 113.9C947.9 114.2 948.9 113.8 949.5 113.1 949.7 112.1 949.3 111.2 948.7 110.9L941 107.3 947.6 104.9C948.2 104.5 948.8 103.5 948.4 102.9 948.4 102 947.7 101.7 946.7 101.8 946.7 101.8 946.4 101.8 946.4 101.8L936.7 105 926.4 99.9 948.3 92.3C949.3 92 949.9 91.3 949.5 90.3 949.1 89.4 948.4 89.1 947.8 89.2 947.5 89.2 947.5 89.2 947.5 89.2L922.1 98 915.5 94.6 914.3 78.3 920.5 74.4 946.8 79.3C947.5 79.6 948.4 78.9 948.7 78.2 948.9 77.2 948.2 76.3 947.2 76.1L924.5 71.5 934 65.1 944 67C945 67.2 946 66.8 945.9 65.9 946.1 64.9 945.4 64 944.8 63.7L938 62.6 945 57.9C945.6 57.2 945.9 56.3 945.5 55.3 945.1 55 944.5 54.8 943.8 54.8 943.5 54.8 943.5 54.8 943.2 55.2L936.2 59.8 937.3 53C937.6 52 936.9 51.4 936.2 51.2 935.9 51.2 935.9 51.2 935.6 51.2 934.9 51.2 934.3 51.6 934 52.3L932.2 62.3 922.7 68.8 927.2 46C927.1 45 926.8 44.1 925.8 44.2 925.5 43.9 925.5 43.9 925.1 43.9 924.5 43.9 923.9 44.6 923.6 45.3L918.7 71.6 912.6 75.6 898 68.5 897.5 61.2 915 41.1C915.6 40.4 915.5 39.1 914.8 38.5S912.9 38 912.3 38.7L897.1 56.4 896.3 44.9 902.9 37.1C903.4 36.4 903.4 35.4 902.7 34.9 902 34.3 901.1 34.3 900.5 35L896 40.1 895.4 31.5C895.4 30.9 894.7 30 893.7 30 892.8 30.1 891.9 31.1 891.9 31.7L892.5 40.4 887.4 35.9C887 35.6 886.7 35.3 886.4 35.3 885.7 35.4 885.4 35.7 885.1 36.1 884.5 36.7 884.6 37.7 885.3 38.3L892.8 45.2 893.6 56.6 876.2 41.2C875.8 40.9 875.5 40.9 874.9 40.9 874.6 41 874.3 41 874 41.3 873.4 42 873.4 43.3 874.1 43.9L893.9 61.4 894.4 68.8 881.3 77.7 874.3 74.7 865.8 49.3C865.5 48.6 864.8 48 864.2 48.1 863.8 48.1 863.8 48.1 863.9 48.4 862.9 48.5 862.3 49.5 862.7 50.4L870.3 72.4 859.7 67.3 856.5 57.6C856.1 57 855.4 56.7 854.8 56.7 854.8 56.7 854.5 56.8 854.5 56.8 853.5 56.8 853 57.8 853.3 58.8L855.7 65.3 848.1 61.7C847.8 61.4 847.4 61.4 847.1 61.4 846.5 61.5 845.9 61.9 845.9 62.2 845.3 63.2 845.7 64.1 846.4 64.7L854 68.4 847.7 70.4C846.8 70.8 846.2 71.8 846.6 72.7 847 73.3 848 73.9 848.6 73.5L858.3 70.3 868.6 75.4 846.7 83C845.7 83.4 845.5 84.3 845.5 85.3 845.9 85.9 846.9 86.5 847.8 86.1ZM884 94.8L883.2 82.4 883.1 80.5 884.6 79.4 894.7 72.6 896.6 71.5 898.2 72.4 909.2 77.7 910.8 78.6 911 80.5 911.8 92.9 912 94.8 910.4 95.9 900.3 102.7 898.8 103.8 896.8 102.9 885.8 97.6 884.2 96.7 884 94.8Z" fill="rgba(51, 121, 194, 0.58)"></path><path d="M954 466.6L914.3 468.7 906 461.6 910.9 437.6 921.5 433.9 957 452C957.5 452.1 957.5 452.1 957.9 452.2 958.9 452.4 959.9 452.1 960.7 450.8 961 449.4 960.7 448.3 959.4 447.6L928.3 431.9 944.6 426.4 958.4 433.2C958.4 433.2 958.9 433.3 958.9 433.3 959.8 433.5 960.9 433.2 961.6 431.9 962.3 431 961.6 429.4 960.3 428.7L951.5 423.9 963.6 420C964.6 419.7 965.4 418.4 965.2 416.9S963.1 415 961.6 415.2L950 419.2 954.3 410.3C955.1 409 954.4 407.3 953.1 406.6 952.2 406.4 950.7 406.6 949.9 407.9L943.1 421.7 926.3 427 942.1 396C942.8 394.7 942.2 393.1 941.3 392.4 939.9 392.1 938.4 392.3 937.6 393.6L920 429.2 909 432.8 891.2 416.9 893.5 405.6 926.5 383.5C927.6 382.7 927.9 381.3 927.2 380.2S925 378.7 923.9 379.5L894.9 399 898.5 381.6 910.9 373.4C912.1 372.6 912.4 371.2 911.7 369.6S909.6 368.2 908.4 369L899.8 375 902.4 362.3C902.7 360.9 901.5 359.7 900.1 359.4 898.7 359.1 897.6 359.9 897.3 361.3L894.6 374 889 365.5C888.4 363.9 887 363.6 885.8 364.8 884.6 365.5 884.3 366.9 885.1 368.1L893.3 380.5 889.7 397.9 870.8 368.6C870 367.4 868.1 367 867 367.8S865.6 369.9 866.3 371.1L888.4 404.5 886 415.8 862.9 423.3 854.7 415.7 852.6 376.1C852.4 374.6 851.1 373.8 849.7 373.5 848.1 373.7 847.4 375 847.1 376.4L849.2 411.2 836.4 399.7 835.7 384.4C835.5 382.8 834.2 382.1 832.8 381.8 831.7 382.1 830.5 383.3 830.7 384.8L831.1 394.7 821.5 386.3C820.7 385.7 819.2 385.9 818 386.6 817.3 387.9 817.5 389.4 818.3 390.1L827.9 398.4 817.4 399.2C816.4 399.5 815.1 400.7 815.4 401.7 815.1 403.2 816 403.8 817.4 404.1 817.4 404.1 817.8 404.2 817.8 404.2L833.2 403.4 846 414.9 811.3 417.1C809.8 417.2 808.6 418 808.8 419.5 809 421 809.8 421.7 810.8 421.9 811.2 422 811.2 422 811.2 422L851.5 419.5 859.7 427 854.8 451 844.3 454.3 808.2 436.5C807.4 435.9 805.8 436.5 805.1 437.4 804.4 438.7 805 440.3 806.3 441L837.4 456.8 821.1 462.2 807.3 455.5C806 454.7 804.5 454.9 804.2 456.3 803.4 457.6 804.1 459.2 804.9 459.9L814.3 464.2 802.2 468.1C801.1 468.9 800.3 470.2 800.5 471.7 800.9 472.3 801.7 472.9 802.7 473.1 803.1 473.2 803.1 473.2 803.7 472.8L815.8 469 811.4 478.3C810.6 479.7 811.4 480.8 812.2 481.5 812.7 481.6 812.7 481.6 813.2 481.7 814.1 481.8 815.1 481.6 815.8 480.7L822.6 466.9 838.9 461.5 823.2 492.5C822.9 493.9 823.1 495.5 824.5 495.7 824.8 496.3 824.8 496.3 825.3 496.4 826.3 496.6 827.4 495.9 828.1 495L845.8 459 856.2 455.7 874.5 471.7 872.3 482.6 838.8 504.6C837.7 505.3 837.3 507.2 838.1 508.3S840.7 509.9 841.8 509.1L870.8 489.6 867.3 506.5 854.8 515.2C853.6 516 853.3 517.4 854.1 518.5 854.8 519.6 856.2 519.9 857.4 519.2L865.9 513.6 863.3 526.3C863.1 527.2 863.7 528.8 865.1 529.1 866.5 529.4 868.2 528.3 868.4 527.3L871.1 514.7 876.7 523.2C877 523.7 877.4 524.3 877.9 524.4 878.8 524.6 879.4 524.2 879.9 523.8 881.1 523.1 881.4 521.7 880.6 520.5L872.5 507.6 876 490.7 894.9 520.1C895.3 520.6 895.8 520.7 896.7 520.9 897.2 521 897.7 521.1 898.2 520.7 899.4 520 899.7 518.1 899 517L877.4 483.6 879.7 472.8 902.3 465.2 911.1 472.4 913.1 512.5C913.4 513.6 914.2 514.7 915.1 514.9 915.6 515 915.6 515 915.7 514.5 917.1 514.8 918.3 513.6 918.1 512.1L916 477.4 929.3 488.9 930 504.3C930.3 505.3 931.2 506 932.1 506.2 932.1 506.2 932.6 506.3 932.6 506.3 934 506.5 935.2 505.3 935 503.8L934.3 493.4 943.8 501.7C944.2 502.3 944.6 502.4 945.1 502.5 946.1 502.7 947.1 502.4 947.2 501.9 948.4 500.7 948.2 499.2 947.5 498.1L937.9 489.7 947.8 489.3C949.3 489.1 950.6 487.9 950.4 486.4 950.1 485.4 948.9 484.1 947.9 484.4L932.5 485.2 919.7 473.7 954.4 471.5C955.9 471.4 956.7 470.1 957 468.6 956.7 467.6 955.5 466.4 954 466.6ZM905.2 439.4L901.4 457.7 900.8 460.5 898.2 461.4 880.8 467.2 877.7 468 875.7 466.1 862 454 859.9 452.1 860.5 449.3 864.3 430.9 864.9 428.1 867.5 427.2 884.9 421.4 887.5 420.5 890 422.5 903.7 434.6 905.8 436.5 905.2 439.4Z" fill="rgba(51, 121, 194, 0.58)"></path><path d="M1199.8 450.8L1191.1 461.7 1187.6 454C1187.4 453.1 1186.2 452.6 1185 452.8 1184.1 453.5 1183.5 454.6 1184.2 455.5L1188.1 465.3 1181.7 474.2 1173.6 453.7C1172.9 452.8 1171.7 452.3 1170.9 452.6 1169.6 453.2 1169 454.3 1169.7 455.2L1178.8 477.8 1168.6 491 1163.4 472.5 1153.5 489 1147.1 473.6 1161.8 454.2C1162.2 454.2 1162.2 453.8 1162.3 453.4 1162.4 452.6 1162.1 451.8 1161.4 451.3 1160.6 450.8 1159.4 451 1158.5 451.7L1145.2 469.3 1141.4 459.1 1147.7 450.7C1148.2 450.3 1148.2 449.9 1148.3 449.5 1148.3 449.1 1148 448.3 1147.3 447.8 1146.6 447.3 1145.3 447.5 1144.8 448.3L1139.5 454.8 1134 442C1133.7 440.7 1132.5 440.6 1131.3 440.8 1130.4 441.1 1129.9 442.2 1130.5 443.5L1135.7 456.3 1127.4 455.2C1126.2 455.1 1125.2 456.1 1125.1 456.9 1124.9 458.1 1125.6 459 1126.8 459.2L1137.5 460.6 1141.4 470.8 1120 468C1118.8 467.8 1117.9 468.5 1117.8 469.7 1117.7 470.5 1118.3 471.8 1119.5 471.9L1143.3 475.1 1149.7 490.5 1131.3 486 1140.4 502.6 1123.8 500.3 1114.6 478.1C1114 476.8 1112.8 476.7 1111.9 477 1111.1 477.3 1110.5 478.4 1110.8 479.6L1119.4 499.8 1108.7 498.3 1104.4 488.5C1104.1 487.2 1103 486.7 1101.7 487.3 1100.8 487.6 1100.3 488.7 1100.9 490L1103.9 497.7 1090.1 495.9C1088.9 495.7 1088 496.4 1087.8 497.6S1088.3 499.7 1089.5 499.8L1103.4 501.7 1098.5 508.3C1097.5 509.4 1097.8 510.6 1098.5 511.1 1099.6 512.1 1100.8 511.8 1101.4 510.7L1108.2 502.3 1118.9 503.7 1105.3 520.9C1104.7 522 1105 523.3 1105.7 523.8 1106.8 524.7 1108 524.5 1108.6 523.3L1123.2 504.3 1139.9 506.5 1126.8 520.1 1145.7 520.6 1135.4 533.8 1111.7 530.6C1110.5 530.5 1109.5 531.5 1109.4 532.3 1109.3 533.5 1109.9 534.4 1111.1 534.6L1132.9 537.5 1126.1 546.3 1115.4 544.8C1114.2 544.7 1113.3 545.4 1113.2 546.6 1113.1 547.3 1113.7 548.6 1114.9 548.8L1123.2 549.9 1114.9 560.9C1113.9 562 1114.2 563.2 1115.3 563.8 1116 564.3 1117.2 564.4 1117.8 563.3L1126.5 552.4 1129.9 560.1C1130.2 560.9 1131.4 561.5 1132.2 561.2 1133 560.9 1133.5 560.2 1133.6 559.8 1133.7 559.4 1133.7 559 1133.4 558.5L1129.4 548.7 1135.8 539.9 1144 560.3C1144.7 561.2 1145.8 561.8 1146.7 561.5 1147.5 561.2 1148 560.5 1148.1 559.7 1148.2 559.3 1148.2 559.3 1147.8 558.8L1138.8 536.2 1149 523.1 1154.2 541.5 1164 525.1 1170.5 540.5 1155.8 559.9C1155.3 560.6 1155.1 561.8 1156.2 562.8 1156.9 563.3 1158.2 563 1159.1 562.4L1172.3 544.7 1176.2 555 1169.8 563.4C1168.9 564.1 1169.2 565.3 1170.3 566.3 1171 566.8 1172.2 566.5 1173.1 565.8L1178.1 559.2 1183.6 572.1C1183.8 573.3 1185 573.5 1186.3 573.2 1186.7 572.9 1187.2 572.2 1187.3 571.8 1187.3 571.4 1187.4 571 1187 570.5L1181.9 557.7 1190.2 558.8C1191.4 559 1192.4 557.9 1192.5 557.1L1192.5 557.1C1192.6 555.9 1191.9 555 1190.7 554.9L1180 553.4 1176.2 543.2 1197.6 546.1C1198.8 546.3 1199.7 545.6 1199.8 544.4S1199.3 542.3 1198.1 542.1L1174.3 539 1167.9 523.6 1186.3 528 1177.2 511.5 1193.8 513.7 1203 535.9C1203.6 537.2 1204.8 537.4 1205.6 537.1 1206.5 536.8 1207 535.7 1206.8 534.4L1198.6 514.3 1208.9 515.7 1213.2 525.6C1213.5 526.8 1214.6 527.4 1215.9 526.7 1216.7 526.5 1217.3 525.3 1217 524.1L1213.6 516.4 1227.5 518.2C1228.7 518.4 1229.6 517.7 1229.8 516.5S1229.2 514.4 1228 514.2L1214.2 512.4 1219.1 505.8C1219.5 505.4 1219.6 505 1219.6 504.6 1219.7 503.9 1219.4 503.4 1219.1 503 1218 502 1216.7 502.2 1216.2 503.4L1209.4 511.8 1198.7 510.3 1212.3 493.2C1212.3 492.8 1212.4 492.4 1212.4 492 1212.5 491.2 1212.2 490.7 1211.9 490.3 1210.8 489.3 1209.5 489.6 1209 490.7L1194.3 509.7 1177.7 507.5 1190.8 493.9 1171.9 493.4 1182.1 480.3 1205.9 483.4C1207.1 483.6 1208.1 482.5 1208.2 481.7 1208.3 480.5 1207.6 479.6 1206.4 479.5L1185 476.6 1191.5 467.8 1202.2 469.2C1203.3 469.4 1204.2 468.7 1204.4 467.5S1203.9 465.4 1202.7 465.3L1194.4 464.2 1202.7 453.2C1203.1 452.8 1203.2 452.4 1203.2 452 1203.3 451.6 1203 450.8 1202.3 450.3 1201.5 449.8 1200.3 449.6 1199.8 450.8ZM1181.8 497.6L1171.1 508.7 1178.6 522.2 1163.3 518.5 1155.5 531.6 1151 516.9 1135.7 516.5 1146.5 505.4 1139 491.9 1153.9 495.5 1162.1 482.4 1166.2 497.1 1181.8 497.6Z" fill="rgba(51, 121, 194, 0.58)"></path><path d="M379 434.2L406.8 452.1 409 461 393.9 474.8 385 472.1 369.9 442.6C369.6 442.3 369.6 442.3 369.3 442 368.8 441.4 367.9 441.1 366.8 441.6 365.9 442.4 365.6 443.2 366.1 444.4L379.4 470.2 365.7 465.9 359.7 454.6C359.7 454.6 359.4 454.3 359.4 454.3 358.9 453.7 358.1 453.4 356.9 453.9 356 454.1 355.7 455.5 356.2 456.7L359.8 464.2 349.8 460.9C349 460.6 347.8 461.1 347.2 462.2S347.7 464.5 348.8 465.1L358.5 468.1 351.3 472C350.1 472.6 349.8 474 350.3 475.1 350.8 475.7 352 476.3 353.1 475.8L364.4 469.8 378.4 474.4 352.6 487.7C351.4 488.2 351.1 489.6 351.3 490.4 352.1 491.3 353.2 491.9 354.4 491.4L383.7 476 392.9 479 397.1 498.4 390 504.9 357 503.7C355.8 503.7 355 504.5 354.9 505.6S355.7 507.6 356.8 507.7L385.9 508.7 375 518.7 362.6 518.1C361.4 518.1 360.5 518.9 360.2 520.3S361 522.3 362.1 522.3L370.9 522.5 362.9 529.7C362 530.6 362.2 532 363 532.9 363.9 533.7 365 533.8 365.9 533L373.8 525.7 373.5 534.2C373.1 535.6 373.9 536.5 375.4 536.2 376.5 536.3 377.4 535.5 377.4 534.3L378 521.9 388.9 511.9 387.3 541C387.3 542.1 388.3 543.3 389.5 543.4S391.5 542.6 391.5 541.5L393 508.1 400.1 501.7 419.4 507.9 421.2 517 403.3 544.8C402.7 545.9 403.2 547.1 404 548 405.1 548.6 406.3 548.1 407.1 547.3L422.7 522.8 425.7 536.8 418.7 547.5C418.1 548.6 418.6 549.8 419.4 550.6 420.3 551 421.7 550.7 422.3 549.6L426.9 542.8 429.2 553.1C429.5 553.9 430.6 554.5 431.7 554.6 432.9 554.1 433.5 553 433.3 552.1L430.9 541.8 438.3 546.4C439.2 546.7 440.6 546.5 440.9 545.6 441.8 544.8 441.5 544 440.7 543.1 440.7 543.1 440.5 542.8 440.5 542.8L429.7 535.8 426.7 521.8 451.2 537.3C452.3 537.9 453.4 538 454 536.9 454.6 535.8 454.4 534.9 453.9 534.3 453.6 534 453.6 534 453.6 534L425.2 516.1 423.4 506.9 438.4 493.2 447.1 496.1 462.7 525.7C463 526.5 464.4 526.9 465.2 526.6 466.4 526.1 466.7 524.7 466.2 523.6L452.9 497.8 466.6 502.1 472.6 513.4C473.1 514.5 474.2 515.1 475.1 514.3 476.3 513.8 476.6 512.4 476.4 511.5L472.2 504 482.2 507.3C483.4 507.3 484.5 506.8 485.1 505.7 485.2 505.1 484.9 504.3 484.4 503.7 484.1 503.4 484.1 503.4 483.5 503.4L473.5 500.1 481 495.9C482.2 495.4 482.2 494.2 482 493.4 481.7 493.1 481.7 493.1 481.5 492.8 480.9 492.2 480.1 491.9 479.2 492.1L467.9 498.1 454.2 493.9 480 480.6C480.9 479.7 481.5 478.6 480.7 477.8 480.7 477.2 480.7 477.2 480.5 476.9 479.9 476.3 478.8 476.3 477.9 476.5L448.4 492.2 439.7 489.3 435.2 469.5 442 463.3 475.3 464.8C476.5 464.8 477.6 463.8 477.7 462.6S476.7 460.3 475.5 460.3L446.4 459.3 457 449.5 469.8 449.8C470.9 449.9 471.8 449.1 471.8 447.9 471.9 446.8 471.1 445.9 469.9 445.9L461.5 445.5 469.4 438.2C470 437.7 470.4 436.3 469.6 435.4 468.7 434.5 467.1 434.4 466.5 434.9L458.5 442.2 458.9 433.8C458.9 433.2 458.9 432.6 458.6 432.3 458.1 431.7 457.5 431.7 457 431.7 455.8 431.6 455 432.5 454.9 433.6L454.1 446.3 443.4 456 445 426.9C445 426.4 444.8 426.1 444.2 425.5 444 425.2 443.7 424.9 443.1 424.9 442 424.8 440.8 425.9 440.8 427L439 460.1 432.2 466.3 413.2 460.3 410.8 451.2 429 423.1C429.4 422.3 429.4 421.1 428.9 420.5 428.6 420.2 428.6 420.2 428.3 420.5 427.5 419.6 426.1 419.9 425.5 421L409.9 445.5 406.6 431.2 413.6 420.4C413.9 419.6 413.7 418.7 413.1 418.1 413.1 418.1 412.9 417.9 412.9 417.9 412 417 410.6 417.2 410 418.3L405.4 425.7 403.1 415.4C403.1 414.9 402.8 414.6 402.5 414.3 402 413.7 401.2 413.4 400.9 413.6 399.4 413.9 398.8 415 398.8 416.1L401.2 426.4 394.3 421.8C393.2 421.2 391.7 421.5 391.1 422.6 390.8 423.4 391 424.8 391.9 425.1L402.6 432.1 405.7 446.1 381.2 430.6C380 430 378.9 430.5 378 431.3 377.7 432.2 377.9 433.6 379 434.2ZM398.7 476.4L410.2 465.9 411.9 464.2 414.2 464.9 428.7 469.5 431.2 470.5 431.7 472.8 435 487.6 435.4 489.9 433.7 491.5 422.2 502.1 420.4 503.7 418.2 503 403.6 498.4 401.4 497.8 400.7 495.2 397.4 480.3 396.9 478 398.7 476.4Z" fill="rgba(51, 121, 194, 0.58)"></path><path d="M240.1 495.1L223.9 514.9 214.6 515.6 220.1 509C220.9 508.4 220.6 507.5 220 506.7 219.4 506.3 218.2 506.4 217.9 507L210.2 516 201.1 517 205 508.7 216.2 504.7C216.2 504.7 216.5 504.5 216.5 504.5 217 504.1 217.1 503.2 217 502.5 216.5 501.7 215.8 501.4 214.9 501.7L206.8 504.7 210.7 496.4 234.5 487.3C234.5 487.3 234.9 487.4 234.9 487.4 235.5 487 235.6 486.1 235.5 485.4 235.2 484.4 234.1 484 233.3 484.6L212.5 492.3 217 482.1 226.3 478.6C226.3 478.6 226.3 478.6 226.6 478.4 227.1 478 227.4 477.4 227.3 476.7 226.8 475.9 226 475.3 225 475.6L218.8 478 222.2 470.6C222.8 469.7 222.2 469 221.6 468.6 220.8 468 219.8 468.3 219.4 469.4L215.9 476.6 213.9 470.5C213.3 469.8 212.5 469.2 211.7 469.7 210.8 470 210.4 470.7 210.7 471.6L214.2 480.9 209.6 490.9 201.6 469.9C201.5 469.2 200.4 468.7 199.5 469 199 469.4 198.4 470.2 198.7 471.2L207.7 495 203.8 503.3 200.8 495.2C200.5 494.2 199.6 494.1 198.7 494.4 198 494.5 197.5 495.6 197.7 496.3L202 507.3 198.3 515.9 192.9 508.3 194.8 496.7C195 495.8 194.4 495 193.5 494.9 192.9 494.6 191.9 495.3 191.7 496.2L190.3 504.7 184.9 497.1 189.4 471.9C189.5 471 188.9 470.3 188.1 470.1 187.2 470 186.4 470.5 186.2 471.4L182.3 493.5 176 484.6 177.6 474.8C177.8 473.9 177.2 473.1 176.3 473 175.4 472.8 174.7 473.4 174.5 474.3L173.2 480.7 168.6 474.2C168 473.4 167.1 473.3 166.3 473.8 165.5 474.4 165.4 475.3 165.9 476L170.6 482.6 164.3 481.5C163.5 481.4 162.7 481.9 162.5 482.8S162.9 484.5 163.8 484.6L173.2 486.2 179.7 495.3 157.8 491.7C156.9 491.5 156.1 492.1 156 493 155.8 493.9 156.4 494.6 157.3 494.8L182.3 499 187.7 506.5 179.2 505.1C178.3 505 177.5 505.5 177.4 506.4 177.2 507.3 177.8 508.1 178.7 508.2L190.3 510.2 195.5 517.5 186.6 518.3 177.3 510.8C176.7 510.4 175.5 510.5 175.2 511.1 174.6 511.9 174.7 512.6 175.3 513.4L181.9 518.9 173.1 519.7 153.3 503.5C152.5 502.9 151.8 503 151 503.6 150.4 504.4 150.7 505.4 151.1 505.9L168.4 520.3 157.2 521.2 149.8 515.1C149.2 514.3 148.2 514.6 147.5 515.2 147.1 515.8 147.2 516.9 148 517.5L152.8 521.6 144.8 522.5C144 522.4 143.4 523.2 143.4 524.3 143.5 525 144.3 525.6 145 525.5L153.2 524.8 148.9 529.9C148.3 530.7 148.6 531.6 149.2 532 149.8 532.8 150.5 532.6 151 532.3 151.3 532.1 151.3 532.1 151.5 531.9L157.6 524.4 168.8 523.5 154.6 540.7C153.9 541.2 154.2 542.2 154.7 543 155.4 543.3 156.1 543.2 156.6 542.8 156.8 542.7 156.8 542.7 156.8 542.7L173.5 523 182.3 522.1 176.8 528.8C176.2 529.6 176.3 530.3 176.9 531.1 177.5 531.4 178.4 531.6 178.9 531.2 179.2 531 179.2 531 179.5 530.9L187 521.6 195.8 520.7 192.2 528.9 181.1 533.2C180.2 533.5 179.8 534.6 179.9 535.3 180.4 536.1 181.3 536.7 182 536.1L190.1 533.1 186.6 541.5 162.4 550.5C161.7 550.6 161.3 551.7 161.4 552.4 162 553.2 162.8 553.7 163.7 553.5L184.6 545.7 179.9 555.7 170.8 559C169.9 559.3 169.5 560.4 170 561.2 170.1 561.9 171 562.5 171.9 562.2L178.1 559.8 174.7 567.2C174.4 567.9 174.7 568.8 175.5 569.4 176 569.5 176.7 569.4 177.2 569 177.2 569 177.5 568.8 177.7 568.6L181 561.2 183.5 567.3C183.6 568 184.6 568.4 185.3 568.3 185.6 568.1 185.6 568.1 185.6 568.1 186.4 567.6 186.5 566.7 186.2 566.2L182.9 557.1 187.3 546.9 195.3 567.9C195.8 568.7 196.5 569 197.4 568.7 197.4 568.7 197.7 568.6 197.7 568.6 198.2 568.2 198.6 567.5 198.3 566.6L189.4 542.6 193.1 534.5 196.1 542.6C196.6 543.4 197.5 544 198.2 543.4 198.4 543.7 198.7 543.5 198.7 543.5 199.2 543.1 199.4 542.2 199.3 541.5L194.9 530.5 198.8 522.2 204 529.5 202.1 541.1C201.9 542 202.7 543 203.6 543.2 204.3 543 205.1 542.5 205.4 541.9L206.6 533.1 212 540.7 207.8 565.7C207.7 566.6 208.2 567.3 209.1 567.5 210 567.6 210.8 567.1 210.9 566.2L214.6 544.3 221.1 553.4 219.5 562.8C219.4 563.7 219.9 564.5 220.8 564.6S222.5 564.2 222.7 563.3L223.7 557.1 228.4 563.6C228.9 564.4 229.8 564.5 230.6 564 231.4 563.4 231.5 562.5 231 561.7L226.3 555.2 232.8 556.1C233.3 556.2 233.7 556.2 234 556.1 234.2 555.9 234.6 555.2 234.7 554.8 234.8 553.9 234.2 553.1 233.4 553L223.7 551.6 217.2 542.5 239.3 545.9C239.8 546 240.2 546.1 240.5 545.9 240.8 545.7 241.1 545.1 241.2 544.6 241.3 543.7 240.8 543 239.9 542.8L214.6 538.8 209.2 531.3 217.9 532.9C218.3 533 218.9 532.6 219.1 532.5 219.4 532.3 219.6 532.1 219.7 531.6 219.9 530.7 219.1 529.7 218.4 529.8L206.6 527.6 201.4 520.3 210.5 519.3 219.6 527C220.2 527.4 221.1 527.5 221.6 527.1 221.9 527 221.9 527 221.7 526.7 222.5 526.1 222.4 525 221.6 524.4L215 518.9 224.1 517.9 243.8 534.5C244.4 534.9 245.1 534.7 245.6 534.4 245.9 534.2 245.9 534.2 245.9 534.2 246.5 533.4 246.7 532.5 245.8 531.9L228.5 517.5 239.7 516.6 247.1 522.7C248 523.3 248.7 523.2 249.2 522.8 249.2 522.8 249.5 522.6 249.5 522.6 250 521.8 249.8 520.8 249.4 520.3L244.1 516.2 252.2 515.5C252.5 515.3 252.8 515.2 253 515 253.3 514.8 253.6 514.1 253.7 513.7 253.4 512.7 252.8 512 251.9 512.2L243.7 512.9 248 507.9C248.6 507.1 248.3 506.1 247.9 505.6 247.1 505 246.2 505.3 245.4 505.9L239.3 513.4 228.3 514.5 242.4 497.4C243 496.5 243 495.4 242.4 495.1 241.6 494.5 240.7 494.3 240.1 495.1Z" fill="rgba(51, 121, 194, 0.58)"></path><path d="M363.7 124.4L363.6 98.9 370.3 92.4 370.3 101C370.1 101.9 370.9 102.5 371.8 102.7 372.5 102.6 373.4 101.8 373.3 101.1L373.5 89.3 379.9 82.7 382.1 91.6 376 101.9C376 101.9 375.9 102.2 375.9 102.2 375.8 102.8 376.2 103.6 376.8 104.1 377.7 104.3 378.4 104.2 379 103.3L383.3 95.9 385.5 104.8 373 126.9C373 126.9 372.6 127.1 372.6 127.1 372.4 127.8 372.9 128.5 373.4 129 374.2 129.6 375.3 129.2 375.6 128.3L386.7 109.1 389.8 119.8 384.8 128.4C384.8 128.4 384.8 128.4 384.7 128.7 384.6 129.4 384.7 130.1 385.2 130.5 386.2 130.8 387.2 130.7 387.7 129.9L390.9 124.1 393.1 132C393.2 133 394.1 133.2 394.8 133.1 395.8 133 396.4 132.2 396 131.1L394.1 123.3 399.5 126.7C400.4 127 401.5 126.9 401.7 126 402.3 125.2 402.1 124.5 401.3 123.9L392.7 118.9 389.9 108.3 409.4 119.5C410 119.9 411.1 119.6 411.6 118.7 411.8 118.1 411.7 117.1 410.9 116.5L388.7 104 386.5 95.1 393.9 99.4C394.8 100 395.6 99.5 396.1 98.7 396.6 98.1 396.2 97 395.7 96.6L385.3 90.8 382.7 81.8 391.7 84.2 397.6 94.4C398 95.2 399 95.4 399.7 95 400.4 94.9 400.8 93.6 400.3 92.8L396 85.4 405 87.8 417.6 110C418 110.8 419 111.1 419.7 110.6 420.5 110.2 420.8 109.2 420.3 108.5L409.3 88.9 419.8 91.8 424.8 100.4C425.3 101.2 426.2 101.4 427 101 427.8 100.5 428 99.6 427.5 98.8L424.5 93 432.2 95.1C433.1 95.3 433.9 94.9 434.2 93.9 434.4 93 433.9 92.2 433 92L425.3 89.9 430.8 86.8C431.6 86.3 431.8 85.4 431.4 84.6S430 83.6 429.2 84L421 88.8 410.1 85.9 429.4 74.8C430.1 74.3 430.4 73.4 429.9 72.6 429.5 71.8 428.6 71.6 427.8 72L405.8 84.7 396.9 82.3 404.3 78C405.1 77.5 405.3 76.6 404.9 75.8 404.4 75 403.5 74.8 402.7 75.3L392.5 81.1 383.9 78.8 390.2 72.6 402.1 72.4C402.8 72.3 403.7 71.5 403.6 70.8 403.5 69.8 403 69.4 402 69.1L393.4 69.1 399.7 62.9 425.3 62.7C426.3 62.7 426.8 62.2 427 61.2 427 60.2 426.1 59.7 425.5 59.5L403 59.4 411 51.6 420.7 51.6C421.6 51.8 422.2 51 422.4 50 422.3 49.3 421.5 48.5 420.5 48.5L414.2 48.5 419.7 42.7C420.5 42.3 420.5 41.2 419.7 40.4 419.2 39.9 418.1 40 417.7 40.5L411.8 46.2 411.9 39.6C411.9 38.6 411 38.1 410.3 38.2 409.4 38 408.9 38.5 408.8 39.1 408.7 39.4 408.7 39.4 408.6 39.7L408.7 49.3 400.6 57.1 400.6 34.9C400.9 34 400 33.4 399.1 33.2 398.4 33.3 397.9 33.9 397.7 34.5 397.7 34.8 397.7 34.8 397.7 34.8L397.4 60.6 391.1 66.8 391.1 58.2C391 57.2 390.5 56.7 389.5 56.5 388.8 56.6 388 57.1 387.9 57.7 387.8 58 387.8 58 387.7 58.3L387.8 70.3 381.5 76.5 379.2 67.9 384.9 57.6C385.5 56.7 385.1 55.6 384.6 55.1 383.7 54.9 382.7 55 382.4 55.9L378.1 63.3 375.4 54.7 388.4 32.3C388.9 31.8 388.5 30.7 388 30.2 387 30 386 30 385.5 30.9L374.4 50.1 371.6 39.4 376.5 31.1C377 30.3 376.6 29.2 375.7 28.9 375.2 28.4 374.2 28.5 373.6 29.3L370.4 35.1 368.2 27.2C368.1 26.5 367.2 26 366.2 26 365.8 26.3 365.4 26.8 365.2 27.4 365.2 27.4 365.1 27.7 365 28L367.2 35.9 361.5 32.7C360.9 32.2 359.8 32.6 359.3 33.1 359.3 33.5 359.3 33.5 359.3 33.5 359 34.4 359.5 35.2 360.1 35.3L368.4 40.2 371.5 51 351.9 39.8C351 39.5 350.3 39.7 349.8 40.5 349.8 40.5 349.7 40.8 349.7 40.8 349.5 41.4 349.6 42.1 350.5 42.7L372.6 55.6 374.9 64.1 367.4 59.8C366.5 59.6 365.5 59.6 365.2 60.6 364.9 60.5 364.9 60.8 364.9 60.8 364.7 61.4 365.1 62.2 365.7 62.7L376.1 68.4 378.3 77.3 369.7 75 363.8 64.8C363.3 64 362.1 63.7 361.3 64.1 360.8 64.7 360.6 65.6 360.7 66.3L365.3 73.8 356.4 71.4 343.7 49.5C343.2 48.7 342.3 48.5 341.5 48.9 340.8 49.4 340.5 50.3 341 51.1L352 70.3 341.2 67.4 336.5 59.1C336 58.4 335.1 58.1 334.3 58.6S333.3 59.9 333.7 60.7L336.9 66.2 329.2 64.1C328.2 63.9 327.5 64.3 327.2 65.3 327 66.2 327.4 67 328.3 67.2L336.1 69.3 330.5 72.8C330.1 73 329.7 73.2 329.6 73.5 329.5 73.9 329.7 74.6 329.9 74.9 330.4 75.7 331.3 76 332.1 75.5L340.4 70.5 351.2 73.4 331.9 84.8C331.5 85 331.1 85.2 331.1 85.5 331 85.8 331.1 86.5 331.3 86.9 331.8 87.7 332.7 88 333.5 87.5L355.5 74.5 364.5 76.9 356.7 81.1C356.4 81.4 356.2 82 356.1 82.3 356 82.6 355.9 82.9 356.2 83.3 356.6 84.1 357.9 84.4 358.3 83.9L368.8 78.1 377.5 80.4 371.1 87 359.2 86.8C358.5 86.9 357.7 87.4 357.6 88 357.5 88.3 357.5 88.3 357.8 88.4 357.5 89.3 358.3 90.2 359.3 90.1L367.9 90.1 361.5 96.7 335.8 96.4C335.1 96.5 334.6 97.1 334.4 97.7 334.3 98 334.3 98 334.3 98 334.4 99 334.9 99.8 335.9 99.7L358.4 99.8 350.3 107.6 340.7 107.7C339.7 107.7 339.2 108.2 339 108.9 339 108.9 339 109.2 339 109.2 339 110.2 339.9 110.7 340.5 110.9L347.2 110.7 341.3 116.4C341.2 116.7 341.2 117.1 341.1 117.4 341 117.7 341.1 118.4 341.4 118.8 342.2 119.3 343.1 119.6 343.7 118.7L349.5 113 349.4 119.6C349.5 120.6 350.3 121.2 350.9 121.3 352 121.3 352.5 120.4 352.8 119.5L352.7 109.9 360.4 102 360.4 124.2C360.5 125.2 361.3 126.1 362 125.9 363 125.9 363.8 125.4 363.7 124.4Z" fill="rgba(51, 121, 194, 0.58)"></path></g><defs><mask id="SvgjsMask1000"><rect width="1440" height="560" fill="#ffffff"></rect></mask><filter id="SvgjsFilter1001"><feGaussianBlur stdDeviation="1"></feGaussianBlur></filter></defs></svg>